<svg id="Calque_1" data-name="Calque 1" xmlns="http://www.w3.org/2000/svg" viewBox="0 0 477 109"><defs><style>.cls-1{fill:#fefefe;}.cls-2{fill:#fcca46;}</style></defs><path class="cls-1" d="M238.5,108.9q-117.19,0-234.4.1C.67,109,0,108.33,0,104.91Q.24,54.24,0,3.58C0,.6.62,0,3.6,0Q238.5.14,473.4,0c3,0,3.6.6,3.58,3.58q-.19,50.66,0,101.33c0,3.42-.67,4.1-4.1,4.09Q355.71,108.82,238.5,108.9Z" transform="translate(0 0)"/><path class="cls-2" d="M237.41,65c4.74-11.32,9.1-21.18,13-31.23,1.4-3.61,3.31-5,7-4.43,3,.49,6.15-.74,9.2,1.11,2.25,1.36,3.31-.38,3.24-2.64-.5-15.1,14.17-21.19,26.4-17.61,2,.59,5.07,1.1,3.36,4-1.47,2.51.49,8.33-5.88,6.89-2.4-.54-5-.74-7.22.88-2.48,1.79-3,4.44-2.49,7.14.53,3.06,3.21,1.36,4.92,1.77a8.81,8.81,0,0,0,2,0c5.48,0,8.33,4.7,6,9.77-1,2.11-2.9,1.19-4.4,1.22-8.32.2-8.32.15-8.32,8.54,0,8.81-.1,17.63.05,26.44.05,3-.75,4-3.89,4.08-10.47.18-10.47.31-10.47-9.93,0-8,.09-16-.07-23.95,0-1.8,1.49-4.91-2.13-5-3-.09-6.51-1.48-8.31,3.12-3.88,9.89-8.23,19.6-12.42,29.37-2,4.72-3.89,9.55-6.26,14.1a21.72,21.72,0,0,1-30,9c-2-1.1-3.22-2.31-1.65-4.7a27.56,27.56,0,0,0,2.26-4.43c.88-2.07,1.94-2.83,4.12-1.45,2.36,1.49,5.12,1.47,7.77,1.09a7,7,0,0,0,5.65-9.84c-6.34-14.81-12.67-29.62-19.19-44.34-1.61-3.64-1.3-4.76,3-4.68,10.15.2,10.14,0,14.05,9.59C230.06,47.09,233.46,55.35,237.41,65Z" transform="translate(0 0)"/><path class="cls-2" d="M136.81,35.14c9.21-7,18.57-9,27.27-3.13,5.19,3.52,7.59,3.34,12.81.09,15.26-9.51,32.13,0,32.93,18.09.4,9.13,0,18.29.12,27.43,0,2.27-.62,3.13-3.06,3.28-11.76.76-11.75.85-11.75-11,0-5.82.11-11.64,0-17.46-.19-7.24-3.81-11.17-10-11.2s-10.88,4.21-11.16,11c-.33,8.13-.27,16.29-.11,24.43.06,3.18-.77,4.29-4.16,4.29C159,80.94,159,81.09,159,70.71c0-6,.1-12,0-17.95-.15-7.14-3.81-11.37-9.75-11.55-6.58-.2-11.28,4.51-11.42,11.77-.15,8-.16,16,0,23.94.07,3-.84,4-3.93,4C123,81.06,123,81.18,123,70.44c0-12.31.11-24.61-.07-36.91,0-3.28.91-4.61,4.2-4.23a17.75,17.75,0,0,0,4.49,0C135.49,28.76,137.84,29.76,136.81,35.14Z" transform="translate(0 0)"/><path class="cls-2" d="M453.2,34c0-6.87.16-13.17-.06-19.45-.11-3.3.62-4.68,4.33-4.66,10.47.06,10.47-.12,10.47,10.46,0,18.61-.1,37.23.09,55.84.05,3.81-1.09,5.16-4.78,4.64a19,19,0,0,0-4,0c-3.54.25-6.74.18-4.64-6.24-6.5,5.52-12.65,7.67-19.77,6.78s-13-3.84-17.47-9.48c-7.32-9.22-7-25,.69-34.37C426.06,27.82,438.76,26.35,453.2,34Z" transform="translate(0 0)"/><path class="cls-2" d="M66.09,51.06c0-12.3.17-24.61,0-36.91,0-3.29,1-4.2,4.25-4.21C81,9.92,81,9.79,81,20.2V34.12c4.23-1.93,7.66-4.31,11.8-5,15.14-2.4,25.13,5.82,25.91,21.89.42,8.79,0,17.62.13,26.43,0,2.65-.93,3.32-3.48,3.42-11.31.46-11.3.54-11.3-10.53,0-5.82.09-11.64,0-17.46-.16-7.49-4.07-11.65-10.73-11.7A11.94,11.94,0,0,0,81,53.05c-.17,8-.18,16,0,23.94.08,3.11-.93,3.9-4,3.93-10.88.11-10.87.22-10.88-10.42,0-4.49-.08-9-.12-13.47A4.22,4.22,0,0,1,66.09,51.06Z" transform="translate(0 0)"/><path class="cls-2" d="M66.09,51.06l0,6c-1.57.8-.88,2.34-1.12,3.55-2.33,11.86-11.79,19.56-25.85,21-11.66,1.19-23.82-5.82-27.95-16.12-4.5-11.22-1.51-23.15,7.68-30.62,12.85-10.43,39.81-8.06,45.8,13.35C64.91,49.2,64.53,50.66,66.09,51.06Z" transform="translate(0 0)"/><path class="cls-2" d="M324.46,28.89c16.5.29,27.75,11.35,27.49,27-.26,15-12.52,26.12-28.36,25.78-16.42-.35-28-11.61-27.76-26.87C296.12,39.3,308,28.59,324.46,28.89Z" transform="translate(0 0)"/><path class="cls-2" d="M382.42,28.88c16.36.07,27.71,10.88,27.67,26.35s-11.92,26.59-28.27,26.42c-16-.17-27.89-11.42-27.94-26.5S366,28.81,382.42,28.88Z" transform="translate(0 0)"/><path class="cls-1" d="M440.33,40.9c8.33,0,13.47,5.59,13.42,14.55-.05,8.19-5.83,14.36-13.44,14.35S427,63.64,427,55.39C426.92,46.31,431.92,40.9,440.33,40.9Z" transform="translate(0 0)"/><path class="cls-1" d="M24,55.21c0-8.93,5.09-14.35,13.42-14.31,8.13.05,13.26,5.42,13.37,14S45,70,37,69.78C29.21,69.61,24,63.73,24,55.21Z" transform="translate(0 0)"/><path class="cls-1" d="M337.2,55.27c0,8.66-5.19,14.37-13.09,14.51-8.05.15-13.42-5.71-13.43-14.66s5-14.28,13.56-14.22C332.31,41,337.24,46.43,337.2,55.27Z" transform="translate(0 0)"/><path class="cls-1" d="M368.84,55c.05-8.86,5.21-14.2,13.62-14.11,8,.09,13.24,5.71,13.17,14.23s-5.57,14.6-13.53,14.65S368.78,63.79,368.84,55Z" transform="translate(0 0)"/></svg>