<?xml version="1.0" encoding="utf-8"?>
<!-- Generator: Adobe Illustrator 24.1.1, SVG Export Plug-In . SVG Version: 6.00 Build 0)  -->
<svg version="1.1" id="Calque_1" xmlns="http://www.w3.org/2000/svg" xmlns:xlink="http://www.w3.org/1999/xlink" x="0px" y="0px"
	 viewBox="0 0 349 27" style="enable-background:new 0 0 349 27;" xml:space="preserve">
<style type="text/css">
	.st0{fill:#ECEEEE;}
	.st1{fill:#259EF8;}
</style>
<g>
	<g>
		<path class="st0" d="M174.8,0.1c56.8,0,113.6,0,170.4-0.1c3.2,0,3.9,0.8,3.8,3.8c-0.3,6.8-0.2,13.6,0,20.3
			c0.1,2.4-0.6,3.2-2.9,2.7c-0.5-0.1-1,0-1.5,0c-113.4,0-226.9,0-340.3,0.1c-3.7,0-4.5-0.8-4.3-4.3C0.4,16.2,0.3,9.7,0,3.3
			C-0.1,0.5,0.7,0,3.4,0C34,0.1,64.7,0.1,95.3,0.1C121.8,0.1,148.3,0.1,174.8,0.1z"/>
		<path class="st1" d="M343.8,3.5c-4.6,9.9-12.3,12.8-21.1,13.4c-6.5,0.4-13,0.7-19.4,0.7c-98.4,0-196.8,0-295.2,0
			c-0.3,0-0.7,0.1-1,0c-1.6-0.4-4.8,0.9-4.5-1.2c0.3-2.4,1-6.1,5.1-6.2c1.3,0,2.7,0,4,0c100.2,0,200.5,0,300.7,0
			C322.8,10.2,333.2,9.7,343.8,3.5z"/>
	</g>
</g>
</svg>
