<?xml version="1.0" encoding="utf-8"?>
<!-- Generator: Adobe Illustrator 24.1.1, SVG Export Plug-In . SVG Version: 6.00 Build 0)  -->
<svg version="1.1" id="Calque_1" xmlns="http://www.w3.org/2000/svg" xmlns:xlink="http://www.w3.org/1999/xlink" x="0px" y="0px"
	 viewBox="0 0 354 33" style="enable-background:new 0 0 354 33;" xml:space="preserve">
<style type="text/css">
	.st0{fill:#ECEEEE;}
	.st1{fill:#0228DC;}
</style>
<g>
	<g>
		<path class="st0" d="M177.1,0.1c57.6,0,115.3,0,172.9-0.1c3.5,0,4.1,0.9,4,4.1c-0.3,8.4-0.3,16.9,0,25.3c0.1,3.2-0.8,3.5-3.7,3.5
			c-36.3-0.1-72.6-0.1-108.9-0.1c-79.1,0-158.2,0-237.3,0.1c-3.5,0-4.1-0.8-4-4.1C0.3,20.4,0.3,12,0,3.5C-0.1,0.4,0.9,0,3.7,0
			C61.5,0.1,119.3,0.1,177.1,0.1z"/>
		<path class="st1" d="M6,8.4c15.7,8.7,32.2,6.3,48.4,6.3c94.6,0.1,189.2,0.1,283.8-0.1c5.4,0,8.3,1.5,9.6,7.3c-1.5,0-2.9,0-4.3,0
			c-102.1,0-204.2,0-306.3,0c-4.8,0-9.6-0.5-14.4-1C15.4,20,9.9,16.1,6,8.4z"/>
	</g>
</g>
</svg>
