<?xml version="1.0" encoding="utf-8"?>
<!-- Generator: Adobe Illustrator 24.1.1, SVG Export Plug-In . SVG Version: 6.00 Build 0)  -->
<svg version="1.1" id="Calque_1" xmlns="http://www.w3.org/2000/svg" xmlns:xlink="http://www.w3.org/1999/xlink" x="0px" y="0px"
	 viewBox="0 0 346 28" style="enable-background:new 0 0 346 28;" xml:space="preserve">
<style type="text/css">
	.st0{fill:#ECEEEE;}
	.st1{fill:#0228DC;}
</style>
<g>
	<g>
		<path class="st0" d="M173.3,0.1c56.3,0,112.6,0,168.9-0.1c3.2,0,3.9,0.8,3.8,3.8c-0.3,7.1-0.2,14.2,0,21.3
			c0.1,2.4-0.6,3.2-2.9,2.7c-0.5-0.1-1,0-1.5,0c-112.4,0-224.9,0-337.3,0.1c-3.7,0-4.5-0.8-4.3-4.3c0.3-6.8,0.3-13.6,0-20.3
			C-0.1,0.5,0.7,0,3.4,0c31.1,0.1,62.3,0.1,93.4,0.1C122.3,0.1,147.8,0.1,173.3,0.1z"/>
		<path class="st1" d="M1.7,19.9c1.3-5.7,4.4-7.3,10-7.2c99.8,0.2,199.5,0.1,299.3,0.2c10.7,0,21.3-0.4,31.1-5.9
			c-0.9,4.9-4.8,8.9-10.5,10.7c-5.8,1.8-11.8,2.2-17.8,2.2c-103.1,0-206.2,0-309.3,0C3.6,19.9,2.7,19.9,1.7,19.9z"/>
	</g>
</g>
</svg>
