<?xml version="1.0" encoding="utf-8"?>
<!-- Generator: Adobe Illustrator 24.1.1, SVG Export Plug-In . SVG Version: 6.00 Build 0)  -->
<svg version="1.1" id="Calque_1" xmlns="http://www.w3.org/2000/svg" xmlns:xlink="http://www.w3.org/1999/xlink" x="0px" y="0px"
	 viewBox="0 0 349 33" style="enable-background:new 0 0 349 33;" xml:space="preserve">
<style type="text/css">
	.st0{fill:#ECEEEE;}
	.st1{fill:#259EF8;}
</style>
<g>
	<g>
		<path class="st0" d="M174.6,32.9C118,32.9,61.4,32.8,4.8,33c-4.3,0-4.9-1.1-4.7-5c0.3-8.1,0.3-16.2,0-24.3C-0.1,0.3,1.1,0,4,0
			c107.9,0.1,215.8,0.1,323.8,0.1c5.8,0,11.7,0.1,17.5-0.1c2.6-0.1,3.9,0,3.8,3.4c-0.4,8.8-0.3,17.6,0,26.3c0.1,3-0.9,3.2-3.5,3.2
			c-44.3-0.1-88.6-0.1-132.9-0.1C200,32.9,187.3,32.9,174.6,32.9z"/>
		<path class="st1" d="M347.4,20.6c-2.3,0-4.2,0-6,0c-98.2,0-196.4,0-294.7-0.1c-8.3,0-16.6-0.1-24.9-1.3c-7.4-1.1-12.5-5-16-11.3
			c0.3-0.2,0.6-0.5,0.8-0.4c9.6,5.1,19.9,5.8,30.5,5.8c100.1-0.1,200.1,0,300.2-0.2C343.1,13,345.8,15,347.4,20.6z"/>
	</g>
</g>
</svg>
