<?xml version="1.0" encoding="utf-8"?>
<!-- Generator: Adobe Illustrator 24.1.1, SVG Export Plug-In . SVG Version: 6.00 Build 0)  -->
<svg version="1.1" id="Calque_1" xmlns="http://www.w3.org/2000/svg" xmlns:xlink="http://www.w3.org/1999/xlink" x="0px" y="0px"
	 viewBox="0 0 348 24" style="enable-background:new 0 0 348 24;" xml:space="preserve">
<style type="text/css">
	.st0{fill:#ECEEEE;}
	.st1{fill:#0670F2;}
</style>
<g>
	<g>
		<path class="st0" d="M173.8,23.9c-56.6,0-113.2,0-169.8,0.1c-3.6,0-4.2-0.9-4-4.1C0.4,14.4,0.4,8.9,0,3.5C-0.2,0.4,0.9,0,3.7,0
			C42.1,0.1,80.6,0.1,119,0.1c74.9,0,149.8,0,224.7-0.1c3.8,0,4.4,1,4.2,4.4c-0.3,5.4-0.3,10.9,0,16.3c0.2,2.9-0.8,3.2-3.4,3.2
			c-36.5-0.1-72.9-0.1-109.4-0.1C214.8,23.9,194.3,23.9,173.8,23.9z"/>
		<path class="st1" d="M2.9,16c1.3-6,4.7-7.2,10.2-7.2c100.8,0.2,201.5,0.1,302.3,0.2c8.9,0,17.6-0.8,25.7-4.8
			c0.8-0.4,1.5-0.7,2.4,0.4c-3.2,6.3-8.7,9.5-15.6,10.4c-4.4,0.6-8.9,1-13.4,1C211.5,16,108.6,16,5.7,16C4.9,16,4,16,2.9,16z"/>
	</g>
</g>
</svg>
