<?xml version="1.0" encoding="utf-8"?>
<!-- Generator: Adobe Illustrator 24.1.1, SVG Export Plug-In . SVG Version: 6.00 Build 0)  -->
<svg version="1.1" id="Calque_1" xmlns="http://www.w3.org/2000/svg" xmlns:xlink="http://www.w3.org/1999/xlink" x="0px" y="0px"
	 viewBox="0 0 350 31" style="enable-background:new 0 0 350 31;" xml:space="preserve">
<style type="text/css">
	.st0{fill:#ECEEEE;}
	.st1{fill:#0670F2;}
</style>
<g>
	<g>
		<path class="st0" d="M175.2,0.1c57,0,113.9,0,170.9-0.1c2.9,0,4.1,0.4,3.9,3.7c-0.3,7.6-0.3,15.2,0,22.8c0.1,3.4-0.4,4.4-4.3,4.4
			c-55.3-0.2-110.6-0.1-165.9-0.1c-58.6,0-117.3,0-175.9,0.1C1,31-0.1,30.5,0,27.2C0.3,19.6,0.3,12,0,4.4C-0.1,1,0.5,0,4.3,0
			C61.2,0.2,118.2,0.1,175.2,0.1z"/>
		<path class="st1" d="M4.6,8.5c10.5,5.3,21.6,5.4,32.8,5.4c99.2-0.1,198.4,0,297.6-0.2c5.4,0,8.9,1.2,10,6.8
			c-1.5,0.9-3.2,0.4-4.8,0.4c-101.7,0-203.4,0-305.1,0c-6.3,0-12.6-0.3-18.8-1.9C10.7,17.5,6.7,14.1,4.6,8.5z"/>
	</g>
</g>
</svg>
