<svg id="Calque_1" data-name="Calque 1" xmlns="http://www.w3.org/2000/svg" viewBox="0 0 399 35"><defs><style>.cls-1{fill:#fefefe;}.cls-2{fill:#43963e;}.cls-3{fill:#6eba54;}.cls-4{fill:#5aaa49;}.cls-5{fill:#489a40;}.cls-6{fill:#54a546;}.cls-7{fill:#4d9f43;}.cls-8{fill:#74c057;}.cls-9{fill:#63b150;}.cls-10{fill:#68b551;}.cls-11{fill:#64b24f;}.cls-12{fill:#89d262;}.cls-13{fill:#7cc75d;}.cls-14{fill:#a1e66f;}.cls-15{fill:#8fd766;}.cls-16{fill:#82cc60;}.cls-17{fill:#7fca5e;}.cls-18{fill:#7ac55a;}.cls-19{fill:#95dc69;}.cls-20{fill:#99df6b;}.cls-21{fill:#a8ec73;}.cls-22{fill:#aef176;}.cls-23{fill:#85cf61;}.cls-24{fill:#92da68;}.cls-25{fill:#8dd565;}.cls-26{fill:#b6f87b;}.cls-27{fill:#b2f478;}.cls-28{fill:#a5e971;}.cls-29{fill:#9ee46e;}.cls-30{fill:#53a447;}.cls-31{fill:#9be16d;}.cls-32{fill:#77c259;}.cls-33{fill:#abee75;}.cls-34{fill:#e5fdce;}.cls-35{fill:#5aa94c;}.cls-36{fill:#bafb7d;}.cls-37{fill:#cafb9c;}.cls-38{fill:#479a41;}.cls-39{fill:#75bf5b;}.cls-40{fill:#4d9e44;}.cls-41{fill:#6db956;}</style></defs><path class="cls-1" d="M199.5,34.9q-97.69,0-195.39.1C.69,35-.1,34.35,0,30.92c.3-9.27.21-18.56,0-27.84C0,.59.61,0,3.11,0,18.27.16,33.43.09,48.59.09Q221.74.09,394.89,0c3.42,0,4.21.65,4.1,4.08-.31,9.1-.26,18.23,0,27.34.09,3-.6,3.57-3.58,3.57Q297.44,34.83,199.5,34.9Z" transform="translate(0 0)"/><path class="cls-2" d="M22.72,25.07c-2.33.06-4.72-.23-6.95.26-3.5.76-5-1.25-6-3.79-2.18-5.17-.05-8.11,5.46-7.34s11.26.67,16.88,1a8.78,8.78,0,0,1,.1,10A27.88,27.88,0,0,1,22.72,25.07Z" transform="translate(0 0)"/><path class="cls-3" d="M142,15.05c7,.53,14.1.27,21,2,2.14,2.43,3,5,1.13,8a5.78,5.78,0,0,1-4.27-.12c-4.35.06-8.7.37-13-.47-1.63-.33-3.36.3-4.94-.49l0,.05C140.09,21.07,139.94,18.05,142,15.05Z" transform="translate(0 0)"/><path class="cls-4" d="M94.93,15.41c3.69-.74,7.41-.44,11.12-.37a5.86,5.86,0,0,1,1.38,3.58c.4,4.56-.67,5.74-5.34,5.82a17,17,0,0,0-2.94.15L88.3,25a2.18,2.18,0,0,1-2.56-.11,9.31,9.31,0,0,1-.17-8.69C88.57,14.64,91.84,16,94.93,15.41Z" transform="translate(0 0)"/><path class="cls-5" d="M32.06,24.81l0-9.63c5.38.36,10.59-1.86,16-1a8.44,8.44,0,0,1,0,9.81l-.4.16L47.26,24c-1.62.86-3.42.1-5.09.58L34.3,25C33.5,25.48,32.73,25.63,32.06,24.81Z" transform="translate(0 0)"/><path class="cls-6" d="M86,16.16V24.8c-3,1.15-6.11.73-9.18.24l-7.77-.2a8.37,8.37,0,0,1,0-9.7c2.05-.12,4.09-.42,6.1.23C78.76,16,82.49,14.72,86,16.16Z" transform="translate(0 0)"/><path class="cls-7" d="M48.09,24V14.14a24.48,24.48,0,0,1,8.1.23c1.66.47,3.46-.28,5.07.58l1.83.07a8.39,8.39,0,0,1,0,9.78L61,24.59c-2.67-.52-5.44.39-8.08-.55Z" transform="translate(0 0)"/><path class="cls-8" d="M164,24.8c.58-2.68-.92-5.11-1-7.71l15,0a7,7,0,0,1,0,8.69c-3.39.12-6.78.5-10.15-.29C166.6,25.11,165.08,26.07,164,24.8Z" transform="translate(0 0)"/><path class="cls-9" d="M99.15,24.59c6.91-1.59,6.91-1.59,6.9-9.55l4.8-.09a4.37,4.37,0,0,1,1.39-.4c7.37-.36,9.14,2.49,5.81,9.4Z" transform="translate(0 0)"/><path class="cls-10" d="M142,15.05c0,3-.05,6-.07,9.05L129,23.84a7.17,7.17,0,0,1,0-8.8Z" transform="translate(0 0)"/><path class="cls-11" d="M129,15v8.8l-11,.11V22.48c0-9.12.31-7.16-7.2-7.53C116.92,13.46,123,14.66,129,15Z" transform="translate(0 0)"/><path class="cls-12" d="M243,24.07c-3.89,1.65-8,1.11-12,1a6.55,6.55,0,0,1,0-8.22c4-.17,7.93-1.38,12-.81C245,18.73,244.82,21.4,243,24.07Z" transform="translate(0 0)"/><path class="cls-13" d="M193,17.17h11a7.12,7.12,0,0,1,0,8.75H193A7.12,7.12,0,0,1,193,17.17Z" transform="translate(0 0)"/><path class="cls-14" d="M305,15.07l12,.1c1.69,2.59,2,5.18,0,7.78l-11,0A8.58,8.58,0,0,1,305,15.07Z" transform="translate(0 0)"/><path class="cls-15" d="M252,15.18l9-.09c3.22,2.31,2.76,5.06,1,8-3.36-.08-6.6,1.39-10,.76C249.86,21,250.2,18.06,252,15.18Z" transform="translate(0 0)"/><path class="cls-16" d="M222,25.79l-9,0a7,7,0,0,1,0-8.67l9,0A7,7,0,0,1,222,25.79Z" transform="translate(0 0)"/><path class="cls-17" d="M213,17.16v8.67l-9,.08c0-2.92,0-5.83,0-8.75Z" transform="translate(0 0)"/><path class="cls-18" d="M193,17.17v8.74l-9-.08a7,7,0,0,1,0-8.68Z" transform="translate(0 0)"/><path class="cls-19" d="M281,22.83l-10,.07c-2-2.66-1.84-5.32,0-8h10C282.76,17.56,283,20.2,281,22.83Z" transform="translate(0 0)"/><path class="cls-20" d="M281,22.83c0-2.63,0-5.27,0-7.9h10c1.8,2.64,2,5.27,0,7.9Z" transform="translate(0 0)"/><path class="cls-21" d="M326.92,16.07h11a5.11,5.11,0,0,1,0,6.82l-11,.13C325.23,20.71,325.12,18.39,326.92,16.07Z" transform="translate(0 0)"/><path class="cls-22" d="M355.91,21c-3.77,2.08-8.15.21-12,1.8-1.83-2.29-1.65-4.58,0-6.86l12-.79C357.56,17.12,357.37,19.07,355.91,21Z" transform="translate(0 0)"/><path class="cls-23" d="M222,25.79V17.13l9-.26v8.22Z" transform="translate(0 0)"/><path class="cls-24" d="M271,14.92v8l-9,.17c-.19-2.68.58-5.47-1-8Z" transform="translate(0 0)"/><path class="cls-25" d="M252,15.18v8.65l-9,.24q0-4,0-8Z" transform="translate(0 0)"/><path class="cls-26" d="M379.88,21.08l-12-.23a4.09,4.09,0,0,1,0-5.69l16,.92a.87.87,0,0,1-.07,1.2l-.89.32a5.86,5.86,0,0,1-2.34.36A3.58,3.58,0,0,1,383,19l2,1C383.76,22.66,381.68,21.24,379.88,21.08Z" transform="translate(0 0)"/><path class="cls-27" d="M367.9,15.16v5.69l-12,.17c0-1.95,0-3.9,0-5.85Z" transform="translate(0 0)"/><path class="cls-28" d="M326.92,16.07q0,3.48,0,7l-10-.08V15.17C320.18,16.3,323.62,15.46,326.92,16.07Z" transform="translate(0 0)"/><path class="cls-29" d="M305,15.07c1.55,2.46.83,5.21,1,7.84l-8-.07c-2-2.62-1.82-5.24,0-7.86Z" transform="translate(0 0)"/><path class="cls-30" d="M63.07,24.8c0-3.26,0-6.52,0-9.78l6,.12v9.7Z" transform="translate(0 0)"/><path class="cls-31" d="M297.94,15v7.86h-7q0-3.94,0-7.9Z" transform="translate(0 0)"/><path class="cls-32" d="M184,17.15v8.68h-6V17.13Z" transform="translate(0 0)"/><path class="cls-33" d="M343.92,16q0,3.43,0,6.86l-6,.08V16.08Z" transform="translate(0 0)"/><path class="cls-34" d="M379.88,21.08c1.65-.52,3.66.59,5.06-1.11,3.09.23,6.25-.44,9.31,1.15C389.48,21.88,384.71,22.67,379.88,21.08Z" transform="translate(0 0)"/><path class="cls-35" d="M86,16.16c-3.59-.6-7.32.66-10.85-.79l19.77,0C92.05,16.74,89,15.56,86,16.16Z" transform="translate(0 0)"/><path class="cls-36" d="M383.88,17c0-.32,0-.64,0-1l11.2,1.2c-3.72,1.29-7.46.56-11.17.62-.36-.18-.48-.36-.38-.56S383.77,17,383.88,17Z" transform="translate(0 0)"/><path class="cls-37" d="M383.88,17c0,.28,0,.57,0,.86L383,19c-2.16-.16-4.44.54-7.4-1C378.83,16.5,381.41,17.19,383.88,17Z" transform="translate(0 0)"/><path class="cls-38" d="M32.06,24.81,34.3,25a22.09,22.09,0,0,1-11.58,0Z" transform="translate(0 0)"/><path class="cls-35" d="M76.84,25C79.9,25,83,24.89,86,24.8L88.3,25A22.05,22.05,0,0,1,76.84,25Z" transform="translate(0 0)"/><path class="cls-30" d="M52.89,24c2.7.14,5.47-.76,8.08.55C58.28,24.44,55.51,25.33,52.89,24Z" transform="translate(0 0)"/><path class="cls-39" d="M164,24.8c1.28.33,2.72-.22,3.89.73-2.67-.08-5.4.72-8-.52Z" transform="translate(0 0)"/><path class="cls-40" d="M42.17,24.61c1.59-1.17,3.38-.51,5.09-.58C45.68,25.23,43.88,24.51,42.17,24.61Z" transform="translate(0 0)"/><path class="cls-30" d="M61.25,15c-1.7-.07-3.49.59-5.07-.58C57.88,14.47,59.67,13.78,61.25,15Z" transform="translate(0 0)"/><path class="cls-41" d="M141.93,24.05c1.66.05,3.38-.54,4.94.49C145.21,24.51,143.49,25.11,141.93,24.05Z" transform="translate(0 0)"/></svg>