<svg id="Calque_1" data-name="Calque 1" xmlns="http://www.w3.org/2000/svg" viewBox="0 0 399 42"><defs><style>.cls-1{fill:#fcfefc;}.cls-2{fill:#fefefe;}.cls-3{fill:#43973e;}.cls-4{fill:#73be58;}.cls-5{fill:#87d063;}.cls-6{fill:#4a9b42;}.cls-7{fill:#6db954;}.cls-8{fill:#92da68;}.cls-9{fill:#5cab4c;}.cls-10{fill:#b0f179;}.cls-11{fill:#52a346;}.cls-12{fill:#5fae4e;}.cls-13{fill:#58a84a;}.cls-14{fill:#abee75;}.cls-15{fill:#66b550;}.cls-16{fill:#53a546;}.cls-17{fill:#7fca5e;}.cls-18{fill:#b8f97d;}.cls-19{fill:#a5ea71;}.cls-20{fill:#8dd465;}.cls-21{fill:#64b14f;}.cls-22{fill:#8bd265;}.cls-23{fill:#a2e670;}.cls-24{fill:#99df6b;}.cls-25{fill:#7ac55a;}.cls-26{fill:#84cd62;}.cls-27{fill:#91d768;}.cls-28{fill:#a8ec74;}.cls-29{fill:#9ee46e;}.cls-30{fill:#9be16d;}.cls-31{fill:#6fbb54;}.cls-32{fill:#77c25a;}.cls-33{fill:#98dd6d;}.cls-34{fill:#b7f67d;}.cls-35{fill:#b5f47f;}.cls-36{fill:#52a249;}.cls-37{fill:#4a9b43;}.cls-38{fill:#e7fdd5;}.cls-39{fill:#c2fc8c;}.cls-40{fill:#63b14f;}.cls-41{fill:#cafd9a;}.cls-42{fill:#7cc75d;}.cls-43{fill:#4c9d43;}.cls-44{fill:#d8fcb7;}.cls-45{fill:#f9fef6;}</style></defs><path class="cls-1" d="M398.76,5.1V35c-2.23,1.95-5,1.63-7.61,1.63-16,0-31.94,0-47.91,0q-166.45,0-332.9,0c-3.41,0-7,.81-10.1-1.62V5.1c2.23-1.95,5-1.63,7.61-1.63,16-.05,31.94,0,47.91,0q166.46,0,332.9,0C392.07,3.48,395.7,2.67,398.76,5.1Z" transform="translate(0 0)"/><path class="cls-2" d="M.24,35H398.76c0,7,0,7-7,7H7.21C.24,42,.24,42,.24,35Z" transform="translate(0 0)"/><path class="cls-2" d="M398.76,5.1H.24C-.66.88,1,0,5.23,0Q199.5.21,393.77,0C398,0,399.66.88,398.76,5.1Z" transform="translate(0 0)"/><path class="cls-3" d="M377.74,14.33l6.9-.91c3.08-.42,5.74-.29,6,3.82.26,4.39-2.4,8.51-5.76,8.48a41.35,41.35,0,0,1-4.92-.62,50.27,50.27,0,0,1-13.14.16c-2.23-3.19-1.83-6.52-.52-9.9C370,13.57,374,15.31,377.74,14.33Z" transform="translate(0 0)"/><path class="cls-4" d="M226.92,16.34,241,15.29c3.67,3,2.73,6.4,1,9.91-6.63,1.3-13.34.69-20,.78-2-2.67-1.69-5.52-.67-8.42C222.86,15.69,225.13,17.13,226.92,16.34Z" transform="translate(0 0)"/><path class="cls-5" d="M226.92,16.34c-1.48,1.3-3.29.52-4.93.8-1.79,1.49-3.94,1.39-6.07,1.36-3,.12-6,.1-9,0-3.59.12-7.19.13-10.78,0-2.89.08-5.79.13-8.68,0-.82,0-1.66.1-2.48,0-3.54-.37-5.88.61-5.75,4.73A3.7,3.7,0,0,1,178,25.89L175,25.82c-1.94-.57-3.93-.26-5.89-.27-6-.06-7.14-1.43-6.23-7.38a4.9,4.9,0,0,1,.72-1.83,1.07,1.07,0,0,1,1.58-.31Z" transform="translate(0 0)"/><path class="cls-6" d="M366.85,15.27c0,3.23,0,6.46,0,9.69-1.11.91-2.28.58-3.45.18l-6.62-.32c-1.77-.89-4.11.65-5.63-1.31-1-3.27-1.46-6.51.56-9.6A15.41,15.41,0,0,1,359,14l2.88.24C363.39,15.23,365.43,13.75,366.85,15.27Z" transform="translate(0 0)"/><path class="cls-7" d="M261.94,24.11c-4.61,1.14-9.31.85-14,.89a8.35,8.35,0,0,1,0-9.76c4.64-.73,9.26-1.64,14-1A8.52,8.52,0,0,1,261.94,24.11Z" transform="translate(0 0)"/><path class="cls-8" d="M123.09,14.13l15,.11a7.43,7.43,0,0,1,.07,9A64.18,64.18,0,0,1,123,23.1l0,0C121.11,20.12,121,17.12,123.09,14.13Z" transform="translate(0 0)"/><path class="cls-9" d="M307.85,25.08l-8-.24c-2.05-.92-4.45.49-6.42-1-1.33-3.49-1.61-6.81,1.48-9.62l1.07.11c3.68.75,7.47-.39,11.13.65a.61.61,0,0,1,.78.09C310,18.42,310.08,21.75,307.85,25.08Z" transform="translate(0 0)"/><path class="cls-10" d="M35.13,21.08,31.2,21c-1.56-2.08-1.75-4.14,0-6.2,5.71-.26,11.43-.6,17.13.18l2.81.12c1.48,2.4,1.92,5.19,2.94,7.76l-10-1C41.17,20.92,38.05,22.26,35.13,21.08Z" transform="translate(0 0)"/><path class="cls-11" d="M337.87,24.87l-7,.09c-2.11-2.9-1.6-6-.8-9.18.78-1.67,2.52-.9,3.75-1.46l7.81-.33a1.1,1.1,0,0,1,1.58.15,11.65,11.65,0,0,1,.27,9.48C341.91,25.42,339.61,23.91,337.87,24.87Z" transform="translate(0 0)"/><path class="cls-12" d="M294.89,14.24c-1.3,3.15-1,6.46-1,9.74-1.07.86-2.2.6-3.34.17a31.4,31.4,0,0,1-8.66,0,8.7,8.7,0,0,1,0-10.06Z" transform="translate(0 0)"/><path class="cls-13" d="M307.85,25.08l0-10,12,0a9.06,9.06,0,0,1,.18,10,36.27,36.27,0,0,1-12.21-.08Z" transform="translate(0 0)"/><path class="cls-14" d="M54.12,22.88c-4.07-1.42-2.77-4.87-2.94-7.76l11,.11a3,3,0,0,1,1,1.69c.13,4.37,2.88,5.08,6.46,4.71,1-.1,2,0,3,0,3.55-.17,7.09-.12,10.63,0,3.36.16,6.92-1,9.92,1.5-3.84,1.57-7.85.66-11.77.66C72.32,23.77,63.18,24.39,54.12,22.88Z" transform="translate(0 0)"/><path class="cls-15" d="M261.94,24.11V14.24l11-.11a8.45,8.45,0,0,1,0,9.86Z" transform="translate(0 0)"/><path class="cls-16" d="M319.89,25l0-9.84,1.72-.15a19.26,19.26,0,0,1,9.27.17V25L326,25.1A8.24,8.24,0,0,1,319.89,25Z" transform="translate(0 0)"/><path class="cls-17" d="M187.05,17.2l9,0c.28.6.07-.24.32.38,2.79,6.94,2.79,6.94,11,7,2,0,4.14-.22,5.76,1.45-8.68,1.44-17.36.48-26-.08A7.06,7.06,0,0,1,187.05,17.2Z" transform="translate(0 0)"/><path class="cls-18" d="M9.21,16.22c6.56-1.84,13.29-1.45,20-1.6a1.38,1.38,0,0,1-.57,1.14c-2.34,1-1.92,3.75-3.41,5.27l-6.9.08c-3.28,1.09-6.74-.17-10,.75H1.93a4.06,4.06,0,0,1,3.23-1.95c2.71-1.68,5.82-.28,8.63-1.13a10.66,10.66,0,0,1,2.2-.71,25.06,25.06,0,0,1,6.59-.58c-2.79.24-5.67-.11-8.33,1a6.73,6.73,0,0,1-3,.56H8.82a9.62,9.62,0,0,1-4.73-.89c-.55-.51-2.26.94-1.89-1.11C4.43,15.88,7,17.23,9.21,16.22Z" transform="translate(0 0)"/><path class="cls-19" d="M83.15,23h-11a5.93,5.93,0,0,1,0-7.72c6.29-.22,12.53-1.52,18.86-.9,0,.51-.14,1.2-.57,1.2C85.52,15.59,84.41,19.33,83.15,23Z" transform="translate(0 0)"/><path class="cls-20" d="M157,24.84l-10.94-.95c-2-2.48-1.93-5.27-.67-7.91,1-2.09,3-1.54,4.77-1l5.88.21C158.05,18.27,157.74,21.54,157,24.84Z" transform="translate(0 0)"/><path class="cls-21" d="M272.91,24V14.13h9v10Z" transform="translate(0 0)"/><path class="cls-22" d="M157,24.84c-1.75-3.06-.65-6.4-1-9.6h1.06c2.22,1,4.79-.51,7,.94-.07,8.46-.07,8.47,8.17,8.85a3.61,3.61,0,0,1,2.71.78A82.27,82.27,0,0,1,157,24.84Z" transform="translate(0 0)"/><path class="cls-23" d="M83.15,23a11.4,11.4,0,0,0,0-1.94c-.73-4.49.83-6.72,5.68-6,.69.11,1.48-.44,2.23-.69l2.1-.09c2.1,2.94,1.94,5.89,0,8.84h0Z" transform="translate(0 0)"/><path class="cls-24" d="M118.1,23h-9a7.22,7.22,0,0,1,0-8.87h9A7.26,7.26,0,0,1,118.1,23Z" transform="translate(0 0)"/><path class="cls-25" d="M213.06,26.08,207,25.9a6.93,6.93,0,0,1,0-8.68l9-.1A7.23,7.23,0,0,1,216,26Z" transform="translate(0 0)"/><path class="cls-26" d="M187.05,17.2l0,8.8-9-.11C178,16.84,178,16.84,187.05,17.2Z" transform="translate(0 0)"/><path class="cls-27" d="M150.17,15c-3-.33-4.5.85-4.14,4.07a42.47,42.47,0,0,1,0,4.79l-4.06,0c-1.2-.78-2.8.26-3.94-.84V14.24C142.12,14.31,146.21,13.69,150.17,15Z" transform="translate(0 0)"/><path class="cls-28" d="M72.16,15.23q0,3.87,0,7.72c-.66,0-1.32.09-2,.09-9.3-.08-7.89.93-8-7.81Z" transform="translate(0 0)"/><path class="cls-29" d="M93.14,23.08V14.24l8-.11a7.25,7.25,0,0,1,0,8.87Z" transform="translate(0 0)"/><path class="cls-30" d="M101.12,23V14.13h8V23Z" transform="translate(0 0)"/><path class="cls-31" d="M247.94,15.24V25l-5.94.2c-.43-3.29.78-6.75-1-9.91C243.31,14.65,245.63,15.05,247.94,15.24Z" transform="translate(0 0)"/><path class="cls-32" d="M216,26c0-3,0-5.91,0-8.87l6,0c0,2.95,0,5.89,0,8.84Z" transform="translate(0 0)"/><path class="cls-33" d="M118.1,23V14.12h5c0,3,0,6,0,9Z" transform="translate(0 0)"/><path class="cls-34" d="M25.21,21c.16-2.79-1.15-6.53,4-6a1.43,1.43,0,0,1,2,.09c0,2,0,3.94,0,5.92Z" transform="translate(0 0)"/><path class="cls-35" d="M31.22,15.1l-2-.09v-.39C35.6,14,42,13.7,48.37,15Z" transform="translate(0 0)"/><path class="cls-33" d="M138.07,23c1.34.18,2.83-.38,3.94.84-6.33-.08-12.7.58-19-.75Z" transform="translate(0 0)"/><path class="cls-36" d="M337.87,24.87c1.47-1.41,3.34-.58,5-.89a7.91,7.91,0,0,1,9-.13c1.61.46,3.49-.4,4.93,1Z" transform="translate(0 0)"/><path class="cls-9" d="M319.89,25l6.1.13a44.62,44.62,0,0,1-18.16,0Z" transform="translate(0 0)"/><path class="cls-36" d="M342.89,14.26,341.61,14A42,42,0,0,1,359,14l-7.14.16A7.89,7.89,0,0,1,342.89,14.26Z" transform="translate(0 0)"/><path class="cls-37" d="M366.85,15.27c-1.63-.53-3.56.42-5-1l15.89.08C374.23,16,370.45,14.55,366.85,15.27Z" transform="translate(0 0)"/><path class="cls-37" d="M363.39,25.14l3.45-.18,13.1.14A38.34,38.34,0,0,1,363.39,25.14Z" transform="translate(0 0)"/><path class="cls-13" d="M330.85,15.15,321.58,15a55.55,55.55,0,0,1,12.22-.66C333,15.28,331.87,15,330.85,15.15Z" transform="translate(0 0)"/><path class="cls-38" d="M14.29,19.11c-2.91,1.79-6.06.76-9.13.8,0-.27,0-.53,0-.79,1.14-1.19,2.9.07,4.07-1l2.07.11C12.16,19,13.52,18.1,14.29,19.11Z" transform="translate(0 0)"/><path class="cls-12" d="M307.09,15c-3.71-.22-7.5.89-11.13-.65C299.69,14.29,303.42,14.08,307.09,15Z" transform="translate(0 0)"/><path class="cls-39" d="M8.28,21.86c3.24-1.61,6.68-.54,10-.75C15.06,22.66,11.64,21.81,8.28,21.86Z" transform="translate(0 0)"/><path class="cls-40" d="M290.56,24.15,293.9,24c2,.38,4.14-.64,5.93.86C296.73,24.71,293.56,25.56,290.56,24.15Z" transform="translate(0 0)"/><path class="cls-35" d="M35.13,21.08c3,.31,6.11-.86,9,.77C41.1,21.77,38,22.52,35.13,21.08Z" transform="translate(0 0)"/><path class="cls-20" d="M164.07,16.19c-2.29-.55-4.82.7-7-.94,2.7.05,5.44-.44,8,.78Z" transform="translate(0 0)"/><path class="cls-41" d="M9.21,16.22c-2.17,1.66-4.67.57-7,.83C4.37,15.33,6.86,16.39,9.21,16.22Z" transform="translate(0 0)"/><path class="cls-41" d="M9.26,18.09c-1.1,1.37-2.69.79-4.07,1l-1.1-1Z" transform="translate(0 0)"/><path class="cls-42" d="M207,17.22V25.9c-.66,0-1.32.13-2,.12-10.58-.13-8.87,1.37-9-8.8Z" transform="translate(0 0)"/><path class="cls-43" d="M342.89,14.26l8.94-.09q0,4.83,0,9.68l-9,.13C342.88,20.74,342.88,17.5,342.89,14.26Z" transform="translate(0 0)"/><path class="cls-44" d="M14.12,17.93c3-1.78,6-.43,9.08-.51-2.31.95-4.92.27-7.14,1.51C15.56,18.32,14.47,18.84,14.12,17.93Z" transform="translate(0 0)"/><path class="cls-45" d="M14.12,17.93l1.94,1-1.77.18c-1-.15-2.22.19-3-.91Z" transform="translate(0 0)"/></svg>