<svg id="Calque_1" data-name="Calque 1" xmlns="http://www.w3.org/2000/svg" viewBox="0 0 336 29"><defs><style>.cls-1{fill:#fef4fd;}.cls-2{fill:#c57412;}.cls-3{fill:#f0d4c2;}.cls-4{fill:#e2b487;}.cls-5{fill:#d3934c;}.cls-6{fill:#efd3c0;}.cls-7{fill:#e3b68a;}.cls-8{fill:#d59652;}</style></defs><path class="cls-1" d="M167.94.1Q249.87.1,331.81,0c3.29,0,4.35.44,4.17,4-.37,7.27-.21,14.57-.05,21.85.05,2.34-.33,3.16-3,3.12-12-.18-24-.08-36-.08q-146.38,0-292.77.09C.9,29-.17,28.56,0,25,.39,18.06.34,11.09,0,4.14-.11.86.51,0,4.07,0Q86,.22,167.94.1Z" transform="translate(0)"/><path class="cls-2" d="M280.85,16.88c-28.75.51-57.5.84-86.24,1.58-46.5,1.19-93,1.77-139.42,5.49-8.22.66-15.12-3.21-22.8-4.09-7.42-.85-14.8-2-22.2-3a.91.91,0,0,1,0-1.61C22.37,13.7,34.68,12.9,46.28,8.29c2.82-1.12,5.95-.25,8.9,0,29.67,2.23,59.4,3.22,89.13,3.91q67.29,1.56,134.59,3C279.44,15.86,281.37,15,280.85,16.88Z" transform="translate(0)"/><path class="cls-3" d="M312.84,15.08c6.66.25,13.41-.93,20,1.82h-17C315.1,15.8,312.67,17.51,312.84,15.08Z" transform="translate(0)"/><path class="cls-4" d="M312.84,15.08l2.93,1.82-18,0c-.68-1.08-3.08.65-2.93-1.77Z" transform="translate(0)"/><path class="cls-5" d="M294.88,15.11l2.93,1.77h-17l-2-1.71Z" transform="translate(0)"/><path class="cls-6" d="M5.18,16.92c-.92,0-2.41.31-2.48-.7-.11-1.77,1.54-1,2.52-1.08A1.2,1.2,0,0,1,5.18,16.92Z" transform="translate(0)"/><path class="cls-7" d="M5.18,16.92c0-.59,0-1.19,0-1.78H8.16c.26.86-.23,1.31-.91,1.66Z" transform="translate(0)"/><path class="cls-8" d="M7.25,16.8l.91-1.66,2,.07v1.61Z" transform="translate(0)"/></svg>