<svg id="Calque_1" data-name="Calque 1" xmlns="http://www.w3.org/2000/svg" viewBox="0 0 337 27"><defs><style>.cls-1{fill:#fef4fd;}.cls-2{fill:#a46798;}.cls-3{fill:#e8d1e4;}.cls-4{fill:#d1adcb;}.cls-5{fill:#bb8ab1;}.cls-6{fill:#e7d0e3;}.cls-7{fill:#d2afcc;}.cls-8{fill:#bd8eb4;}</style></defs><path class="cls-1" d="M168.54,26.9Q86.36,26.9,4.17,27C.83,27-.17,26.47,0,23,.39,16.36.24,9.72.07,3.11,0,.72.49,0,3.09,0,22.4.15,41.72.09,61,.09Q196.94.09,332.83,0c3.33,0,4.35.51,4.14,4a169.33,169.33,0,0,0,0,18.85c.18,3.34-.54,4.13-4,4.12Q250.73,26.78,168.54,26.9Z" transform="translate(0 0)"/><path class="cls-2" d="M280.78,14.79c-12.13.17-24.26.28-36.39.52-30.9.63-61.8,1.17-92.69,2-24.4.69-48.79,1.75-73.18,2.78A222.57,222.57,0,0,0,54.7,21.89c-8.39,1.26-15.48-3.14-23.33-4.05-7.41-.86-14.79-2-22.18-3a.92.92,0,0,1,0-1.63c12.2-1.41,24.48-2.34,36.09-6.86,2.69-1,5.63-.33,8.42-.11,19.88,1.6,39.8,2.25,59.73,3,39.36,1.47,78.73,2.3,118.12,3.08,15.45.3,30.91.31,46.36.86C278.55,14.25,280.92,12.33,280.78,14.79Z" transform="translate(0 0)"/><path class="cls-3" d="M311.86,13.05c6.64.31,13.4-.94,19.92,1.87h-17C314.16,13.76,311.64,15.53,311.86,13.05Z" transform="translate(0 0)"/><path class="cls-4" d="M311.86,13.05l2.94,1.87-18,0c-.5-.73-2.29,0-1.94-1.69Z" transform="translate(0 0)"/><path class="cls-5" d="M294.87,13.19l1.94,1.69-16-.09-2.87-1.64Z" transform="translate(0 0)"/><path class="cls-6" d="M4.17,14.93c-.91,0-2.37.29-2.45-.72-.12-1.75,1.52-1,2.48-1.12A1.26,1.26,0,0,1,4.17,14.93Z" transform="translate(0 0)"/><path class="cls-7" d="M4.17,14.93l0-1.84,3,0c.48,1-.3,1.3-.91,1.71Z" transform="translate(0 0)"/><path class="cls-8" d="M6.24,14.82l.91-1.71,2,.08v1.63Z" transform="translate(0 0)"/></svg>