<?xml version="1.0" encoding="utf-8"?>
<!-- Generator: Adobe Illustrator 24.1.1, SVG Export Plug-In . SVG Version: 6.00 Build 0)  -->
<svg version="1.1" id="Calque_1" xmlns="http://www.w3.org/2000/svg" xmlns:xlink="http://www.w3.org/1999/xlink" x="0px" y="0px"
	 viewBox="0 0 290.5 18.1" style="enable-background:new 0 0 290.5 18.1;" xml:space="preserve">
<style type="text/css">
	.st0{fill:#FBDEDA;}
	.st1{fill:#3D1319;}
</style>
<g>
	<g>
		<path class="st0" d="M144,19.7c-47.3,0-94.6,0-141.9,0.1c-3,0-3.8-0.6-3.6-3.6c0.3-5.1,0.2-10.2,0-15.4c-0.1-1.7,0.3-2.3,2.1-2
			c0.6,0.1,1.3,0,2,0c94.6,0,189.2,0,283.8-0.1c3.4,0,4.4,0.6,4.1,4.1c-0.4,4.6-0.3,9.2,0,13.9c0.1,2.5-0.6,3.1-3.1,3
			c-19.3-0.1-38.6-0.1-57.9-0.1C201,19.7,172.5,19.7,144,19.7z"/>
		<path class="st1" d="M147.5,6.8c26.4,1.9,51.7-1.9,77-0.9c20.1,0.8,40.2,1.2,60.3,1.9c1.8,0.1,4.6-0.5,4.6,2.4
			c0,3.4-3,2.3-4.9,2.5c-38.2,3.6-76.5,0.3-114.7,0.1c-25.6-0.1-51.3,0.1-76.9-0.3C64.2,12,35.7,14.6,7.1,13.9
			c-1.8,0-4.6,1.6-5.4-1.6C0.9,9.4,2.8,7.9,5.2,6.7C10.6,3.9,16.3,5,21.8,5.1c23.8,0.4,47.5,1.3,71.3,1.7
			C111.6,7.1,130.1,6.8,147.5,6.8z"/>
	</g>
</g>
</svg>
