<?xml version="1.0" encoding="utf-8"?>
<!-- Generator: Adobe Illustrator 24.1.1, SVG Export Plug-In . SVG Version: 6.00 Build 0)  -->
<svg version="1.1" id="Calque_1" xmlns="http://www.w3.org/2000/svg" xmlns:xlink="http://www.w3.org/1999/xlink" x="0px" y="0px"
	 viewBox="0 0 334 25" style="enable-background:new 0 0 334 25;" xml:space="preserve">
<style type="text/css">
	.st0{fill:#FEF4FD;}
	.st1{fill:#C57412;}
	.st2{fill:#F0D4C2;}
	.st3{fill:#E2B487;}
	.st4{fill:#D3934C;}
	.st5{fill:#F2D8C9;}
	.st6{fill:#D29047;}
</style>
<g>
	<g>
		<path class="st0" d="M167.2,24.9c-54.4,0-108.8,0-163.3,0.1c-3,0-4-0.5-3.9-3.8C0.3,15,0.2,8.7,0.1,2.4c0-1.7,0.2-2.7,2.2-2.3
			c0.6,0.1,1.3,0,2,0c108.5,0,217,0,325.5-0.1c3.3,0,4.4,0.5,4.1,4c-0.4,6.1-0.2,12.2,0,18.3c0,2-0.2,2.8-2.5,2.6
			c-3.5-0.2-7-0.1-10.5-0.1C269.7,24.9,218.4,24.9,167.2,24.9z"/>
		<path class="st1" d="M323.8,13.9c-12,1.5-24.1,2.4-35.6,6.8c-3,1.2-6.3,0.2-9.4,0c-29.8-2.2-59.7-3.2-89.6-3.9
			c-45.4-1-90.7-2-136.1-3c-0.2-2.5,2.3-0.6,2.9-1.7c28.4-0.5,56.9-0.9,85.3-1.6c46.2-1.2,92.4-1.9,138.5-5.3
			c4.3-0.3,8.4,0.1,12.7,1.5c10.1,3.4,20.8,4.3,31.4,5.4C324.5,12.7,324.5,13.3,323.8,13.9z"/>
		<path class="st2" d="M19.2,13.9c-5.7,0-11.5,0-17.2,0c0-0.6,0-1.2-0.1-1.8c6.4,0,12.8,0,19.3,0C21.5,13.9,19.7,13.2,19.2,13.9z"/>
		<path class="st3" d="M19.2,13.9c0.7-0.6,1.3-1.2,2-1.8c6,0,12,0,18,0c0.4,1.7-1.4,1-2,1.7C31.2,13.9,25.2,13.9,19.2,13.9z"/>
		<path class="st4" d="M37.2,13.9c0.7-0.6,1.3-1.2,2-1.7c5.7,0,11.3,0,17,0c-1,0.6-2,1.1-2.9,1.7C47.8,13.9,42.5,13.9,37.2,13.9z"/>
		<path class="st3" d="M329.8,13.9c-1,0-2,0-3-0.1c-0.6-0.4-1.4-0.7-0.9-1.7c1.3,0,2.6,0,3.9,0.1C330.5,12.7,330.5,13.3,329.8,13.9z
			"/>
		<path class="st5" d="M329.8,13.9c0-0.6,0-1.2-0.1-1.7c1,0,2.6-0.7,2.5,1C332.2,14.3,330.7,13.9,329.8,13.9z"/>
		<path class="st6" d="M325.8,12.1c0.3,0.6,0.6,1.2,0.9,1.7c-1,0-2,0-2.9,0c0-0.6,0-1.1,0-1.7C324.5,12.2,325.2,12.1,325.8,12.1z"/>
	</g>
</g>
</svg>
