<?xml version="1.0" encoding="utf-8"?>
<!-- Generator: Adobe Illustrator 24.1.1, SVG Export Plug-In . SVG Version: 6.00 Build 0)  -->
<svg version="1.1" id="Calque_1" xmlns="http://www.w3.org/2000/svg" xmlns:xlink="http://www.w3.org/1999/xlink" x="0px" y="0px"
	 viewBox="0 0 337 30" style="enable-background:new 0 0 337 30;" xml:space="preserve">
<style type="text/css">
	.st0{fill:#FEF4FD;}
	.st1{fill:#6E4CCB;}
	.st2{fill:#DACAF1;}
	.st3{fill:#B7A1E4;}
	.st4{fill:#9276D8;}
	.st5{fill:#B9A4E5;}
	.st6{fill:#DECFF2;}
</style>
<g>
	<g>
		<path class="st0" d="M168.6,29.9c-54.9,0-109.9,0-164.8,0.1c-3.1,0-4-0.6-3.9-3.8c0.3-7.9,0.1-15.9,0-23.8c0-1.8,0.3-2.7,2.3-2.3
			c0.6,0.1,1.3,0,2,0c109.5,0,219,0,328.6-0.1c3.4,0,4.3,0.6,4.1,4c-0.3,7.3-0.3,14.6,0,21.8c0.1,3.3-0.5,4.1-4,4.1
			C278.2,29.9,223.4,29.9,168.6,29.9z"/>
		<path class="st1" d="M327.7,15.8c-12.9,1.1-25.8,2.2-38.1,6.9c-2.9,1.1-6,0.3-8.9,0.1c-30.5-2.2-61.1-3.1-91.7-4
			c-29.3-0.8-58.5-1.7-87.8-2c-15.6-0.2-31.3-0.6-46.9-1c-0.5-1.9,1.4-1,1.9-1.6C67.7,14,79.4,13.9,91,13.6
			c41.5-1,83.1-1.8,124.6-3.1c22.2-0.7,44.5-1.3,66.7-3.5c7.7-0.8,14.1,3.4,21.3,4.3c7.7,1,15.4,2.4,23.2,2.9
			C327.6,14.4,328,14.9,327.7,15.8z"/>
		<path class="st2" d="M19.3,15.9c-5.4,0-10.9,0-16.3,0c0-0.6-0.1-1.2-0.1-1.8c6.4,0,12.8,0,19.2,0C22.3,16.5,19.9,14.8,19.3,15.9z"
			/>
		<path class="st3" d="M19.3,15.9c1-0.6,1.9-1.2,2.9-1.8c6,0,12,0,18,0.1c0,2.3-2.1,0.7-2.9,1.7C31.2,15.8,25.2,15.8,19.3,15.9z"/>
		<path class="st4" d="M37.2,15.8c1-0.6,1.9-1.1,2.9-1.7c5.3,0,10.7,0,16,0.1c-0.6,0.5-1.3,1.1-1.9,1.6
			C48.5,15.8,42.9,15.8,37.2,15.8z"/>
		<path class="st5" d="M327.7,15.8c-0.3-0.5-0.6-1.1-0.9-1.6c1.3,0,2.7-0.1,4-0.1c0.7,0.6,0.7,1.2,0,1.8
			C329.8,15.9,328.7,15.8,327.7,15.8z"/>
		<path class="st6" d="M330.8,15.9c0-0.6,0-1.2,0-1.8c1,0.1,2.6-0.6,2.5,1.1C333.2,16.3,331.7,15.9,330.8,15.9z"/>
	</g>
</g>
</svg>
