<?xml version="1.0" encoding="utf-8"?>
<!-- Generator: Adobe Illustrator 24.1.1, SVG Export Plug-In . SVG Version: 6.00 Build 0)  -->
<svg version="1.1" id="Calque_1" xmlns="http://www.w3.org/2000/svg" xmlns:xlink="http://www.w3.org/1999/xlink" x="0px" y="0px"
	 viewBox="0 0 332 27" style="enable-background:new 0 0 332 27;" xml:space="preserve">
<style type="text/css">
	.st0{fill:#FEF4FD;}
	.st1{fill:#DACAF1;}
	.st2{fill:#D9C8F0;}
	.st3{fill:#6E4CCB;}
	.st4{fill:#B6A1E4;}
	.st5{fill:#9276D8;}
	.st6{fill:#B8A2E5;}
	.st7{fill:#957AD9;}
</style>
<g>
	<g>
		<path class="st0" d="M331.4,14c0,4.1,1.7,9.9-0.5,12c-2.1,2.1-8.1,0.5-12.4,0.5c-104.6,0-209.3,0-313.9,0.1c-3.4,0-4.4-0.7-4-3.9
			c0.4-2.8,0.1-5.7,0.1-8.6c0.8-0.7,1.8-1.1,3-1.2c0.8-0.1,1.7-0.1,2.5-0.1c1.2,0,2.3,0,3.5,0c10.6,0.5,21.2,1.8,31.4,4.9
			c4.7,1.4,9.4,1.9,14.2,1.2c6.4-0.9,12.9-1,19.3-1.2c10.8-0.3,21.5-1.1,32.3-1.4c25.2-0.6,50.4-1.5,75.6-2.1
			c11.6-0.3,23.2-0.4,34.8-0.7c20.7-0.6,41.5-0.9,62.2-0.8c5.3,0,10.7,0,16,0c6,0,12,0,18,0c4.3,0,8.5,0,12.8,0
			C328.1,12.6,329.9,12.7,331.4,14z"/>
		<path class="st0" d="M0.6,12C0.6,8.2-1,2.9,1,1s7.5-0.4,11.5-0.4c105,0,209.9,0,314.9-0.1c3.4,0,4.5,0.6,4.1,3.9
			c-0.4,2.8-0.1,5.7-0.1,8.6c-6.7,0.2-13.4-0.1-20.1,0c-5.9,0-11.8,0-17.8,0c-5.7,0-11.3,0-17,0c-27.9,0.3-55.8,0-83.6-0.5
			c-24.2-0.5-48.4-0.8-72.6-1.9C97.5,9.5,74.6,9.3,51.8,7c-3.5-0.3-6.9,0.3-10.3,1.3c-10.4,3-21,4.8-31.9,4.6c-0.9,0-1.8,0-2.7,0
			c-1.1,0-2.3,0-3.4,0C2.5,13,1.4,12.8,0.6,12z"/>
		<path class="st1" d="M311.4,12.2c6.7,0.1,13.4-0.9,20,0.8c0,0.3,0,0.6,0,1c-6,0-12-0.1-18-0.1C312.8,13.2,311,13.8,311.4,12.2z"/>
		<path class="st2" d="M0.6,12c1,0,2,0.1,3.1,0.1c0.5,0.6,0.5,1.2,0,1.8c-1,0-2,0-3,0.1C0.6,13.3,0.6,12.7,0.6,12z"/>
		<path class="st3" d="M8.6,12.2c12.2-1.4,24.4-2.2,36-6.6c2.7-1,5.6-0.3,8.4-0.1c29.8,2.2,59.6,2.9,89.4,3.8
			c44.7,1.4,89.5,2.1,134.2,2.8c0.7,1,3-0.8,2.9,1.6c-11.6,0.2-23.2,0.3-34.8,0.6c-31.3,0.6-62.6,1-93.9,2
			c-29.5,0.9-59,1.4-88.3,3.9c-13.9,1.2-26.3-3.3-39.5-4.7c-4.8-0.5-9.5-1.1-14.3-1.7C8,13.3,8,12.8,8.6,12.2z"/>
		<path class="st4" d="M311.4,12.2c0.7,0.6,1.3,1.1,2,1.7c-6,0-12,0-17.9,0c-0.5-0.7-2.3,0-1.9-1.6
			C299.4,12.2,305.4,12.2,311.4,12.2z"/>
		<path class="st5" d="M293.5,12.2c0.6,0.5,1.3,1.1,1.9,1.6c-5.3,0-10.7-0.1-16-0.1c-1-0.5-1.9-1-2.9-1.6
			C282.2,12.2,287.8,12.2,293.5,12.2z"/>
		<path class="st6" d="M3.6,13.9c0-0.6,0-1.2,0-1.8c1,0,2,0,2.9,0c0.3,0.8-0.2,1.3-0.9,1.6C5,13.8,4.3,13.9,3.6,13.9z"/>
		<path class="st7" d="M5.7,13.8c0.3-0.5,0.6-1.1,0.9-1.6c0.7,0,1.4,0,2,0.1c0,0.5,0,1,0,1.6C7.6,13.8,6.7,13.8,5.7,13.8z"/>
	</g>
</g>
</svg>
