<svg id="Calque_1" data-name="Calque 1" xmlns="http://www.w3.org/2000/svg" viewBox="0 0 337 27"><defs><style>.cls-1{fill:#fef4fd;}.cls-2{fill:#a46798;}.cls-3{fill:#e8d1e4;}.cls-4{fill:#d1aecc;}.cls-5{fill:#bb8bb2;}.cls-6{fill:#d3b0cd;}.cls-7{fill:#ebd5e7;}</style></defs><path class="cls-1" d="M168.45.1Q250.64.1,332.82,0c3.32,0,4.36.49,4.16,4-.38,6.6-.22,13.24-.05,19.85.06,2.37-.38,3.13-3,3.11-16-.15-32-.08-48-.08q-140.89,0-281.78.09C.87,27-.19,26.52,0,23A169.33,169.33,0,0,0,0,4.13C-.13.81.56,0,4.08,0Q86.27.22,168.45.1Z"/><path class="cls-2" d="M327.66,13.79c-12.93,1.07-25.84,2.25-38.14,6.85-2.89,1.08-6,.37-8.92.15-30.53-2.26-61.11-3.13-91.7-4-29.27-.84-58.54-1.39-87.81-2.06-15.64-.37-31.28-.34-46.91-.86-.53-1.91,1.37-1,1.93-1.64,12.3-.17,24.6-.28,36.9-.53,30.23-.63,60.47-1.17,90.7-2C208,9,232.18,7.91,256.41,6.89c8-.34,15.9-1.07,23.85-1.64A33.39,33.39,0,0,1,293.44,6.7c10.76,3.54,22,4.74,33.32,5.5C327.58,12.44,328,12.88,327.66,13.79Z"/><path class="cls-3" d="M19.26,13.89H3l-.07-1.78H22.16C22.32,14.51,19.94,12.83,19.26,13.89Z"/><path class="cls-4" d="M19.26,13.89l2.9-1.78,18,0c.07,2.28-2.12.77-2.87,1.68Z"/><path class="cls-5" d="M37.25,13.83l2.87-1.68,16,.07-1.93,1.64Z"/><path class="cls-6" d="M327.66,13.79l-.9-1.59,4-.09a1.11,1.11,0,0,1,0,1.84Z"/><path class="cls-7" d="M330.82,14l0-1.84c1,.12,2.6-.61,2.47,1.12C333.19,14.26,331.73,13.92,330.82,14Z"/></svg>