<?xml version="1.0" encoding="utf-8"?>
<!-- Generator: Adobe Illustrator 24.1.1, SVG Export Plug-In . SVG Version: 6.00 Build 0)  -->
<svg version="1.1" id="Calque_1" xmlns="http://www.w3.org/2000/svg" xmlns:xlink="http://www.w3.org/1999/xlink" x="0px" y="0px"
	 viewBox="0 0 297 14.2" style="enable-background:new 0 0 297 14.2;" xml:space="preserve">
<style type="text/css">
	.st0{fill:#FBDEDA;}
	.st1{fill:#3D1319;}
</style>
<g>
	<g>
		<path class="st0" d="M148.6-1c47.8,0,95.7,0,143.5-0.1c3.2,0,5,0.1,4.5,3.9c-0.5,4,1.5,9.7-0.7,11.6c-2.3,2-8.2,0.5-12.5,0.5
			c-92.9,0-185.7,0-278.6,0.1c-4,0-4.7-1.1-4.4-4.4C0.7,6.8-1.1,1.3,1-0.5C3.2-2.5,8.9-1,13-1C58.2-1,103.4-1,148.6-1z"/>
		<path class="st1" d="M149.4,11.6c-45.5,0-90.9-1.9-136.3-3.4c-2.5-0.1-5-0.4-7.4-0.7C4.3,7.4,2.8,7.1,2.9,5.5C3,4,3.7,2.8,5.6,2.7
			C9.4,2.5,13.3,1.7,17,2c14.9,1.3,29.9,0.7,44.8,0.7c40.3-0.1,80.7,0.1,121,1c31.5,0.7,63.1,0.9,94.6,1.2c4.1,0,8.4-0.3,12.1,1.7
			c1.3,0.7,3.4,1.5,2.8,3.4c-0.5,1.4-2.4,1.4-4,1.4c-8.5,0-16.9,0-25.4,0c-31.2,0.1-62.4,0.2-93.6,0.3
			C162.7,11.6,156,11.6,149.4,11.6z"/>
	</g>
</g>
</svg>
